<!-- Generated by IcoMoon.io -->
<svg version="1.1" xmlns="http://www.w3.org/2000/svg" width="35" height="32" viewBox="0 0 35 32">
<title>like_dislike</title>
<path d="M24.471 1.712h0.148c4.979 0.137 8.962 4.205 8.962 9.204 0 0.164-0.004 0.327-0.013 0.488l0.001-0.023c-0.114 1.926-0.818 3.668-1.932 5.070l0.014-0.018-13.323 13.608c-0.144 0.151-0.346 0.245-0.571 0.245h-0.189c-0.223-0.002-0.425-0.093-0.571-0.24l-0-0-13.374-13.643c-1.178-1.523-1.889-3.459-1.889-5.562 0-4.978 3.982-9.025 8.934-9.131l0.010-0h0.166c1.682 0.001 3.257 0.457 4.61 1.251l-0.043-0.023h0.086c0.614 0.385 1.347 0.639 2.134 0.707l0.018 0.001c0.801-0.049 1.538-0.284 2.18-0.663l-0.023 0.012h0.080c1.31-0.77 2.885-1.226 4.566-1.227h0zM24.454 0.057c-0.004 0-0.008 0-0.013 0-2.006 0-3.885 0.547-5.494 1.5l0.050-0.027-0.063 0.040c-0.371 0.226-0.804 0.393-1.267 0.476l-0.023 0.003c-0.488-0.086-0.923-0.253-1.313-0.489l0.017 0.009-0.063-0.040c-1.554-0.944-3.429-1.51-5.434-1.53l-0.005-0h-0.177c-5.929 0.139-10.683 4.979-10.683 10.928 0 0.196 0.005 0.39 0.015 0.584l-0.001-0.027c0.142 2.309 0.992 4.396 2.334 6.072l-0.017-0.021 13.42 13.7c0.458 0.465 1.095 0.753 1.798 0.753 0.002 0 0.004 0 0.006 0h0.188c0.001 0 0.003 0 0.004 0 0.702 0 1.337-0.288 1.793-0.753l0-0 13.42-13.7c1.325-1.655 2.175-3.742 2.316-6.020l0.002-0.031c0.009-0.167 0.014-0.362 0.014-0.558 0-5.932-4.725-10.76-10.616-10.927l-0.015-0z"></path>
</svg>
