<!-- Generated by IcoMoon.io -->
<svg version="1.1" xmlns="http://www.w3.org/2000/svg" width="35" height="32" viewBox="0 0 35 32">
<title>like</title>
<path d="M32.965 17.541v0c1.325-1.655 2.175-3.742 2.316-6.020l0.002-0.031c0.009-0.168 0.014-0.365 0.014-0.563 0-5.938-4.734-10.77-10.634-10.927l-0.015-0c-0.056-0.001-0.123-0.002-0.19-0.002-2.006 0-3.885 0.548-5.494 1.502l0.050-0.027-0.063 0.040c-0.373 0.227-0.808 0.394-1.273 0.476l-0.023 0.003c-0.492-0.084-0.931-0.251-1.324-0.489l0.017 0.009-0.063-0.040c-1.559-0.927-3.438-1.474-5.444-1.474-0.067 0-0.133 0.001-0.2 0.002l0.010-0c-5.922 0.148-10.666 4.984-10.666 10.928 0 0.196 0.005 0.391 0.015 0.584l-0.001-0.027c0.142 2.309 0.992 4.396 2.334 6.072l-0.017-0.021 13.42 13.7c0.461 0.466 1.1 0.755 1.807 0.755 0.033 0 0.066-0.001 0.098-0.002l-0.005 0c0.027 0.001 0.058 0.002 0.089 0.002 0.705 0 1.342-0.289 1.8-0.755l0-0z"></path>
</svg>
