<!-- Generated by IcoMoon.io -->
<svg version="1.1" xmlns="http://www.w3.org/2000/svg" width="32" height="32" viewBox="0 0 32 32">
<title>loader</title>
<path d="M9.938 14.901c0.537-2.877 3.029-5.025 6.021-5.025s5.484 2.148 6.016 4.987l0.006 0.038h9.938c-0.657-8.297-7.551-14.78-15.96-14.78s-15.303 6.484-15.956 14.724l-0.004 0.056z"></path>
<path d="M21.981 17.099c-0.538 2.877-3.029 5.025-6.021 5.025s-5.484-2.148-6.016-4.987l-0.006-0.038h-9.938c0.657 8.297 7.551 14.78 15.96 14.78s15.303-6.484 15.956-14.724l0.004-0.056z"></path>
<path d="M15.96 12.015c-1.808 0.002-3.334 1.207-3.82 2.858l-0.007 0.028c-0.099 0.329-0.155 0.708-0.155 1.099s0.057 0.77 0.162 1.127l-0.007-0.028c0.494 1.678 2.020 2.881 3.828 2.881s3.333-1.204 3.82-2.853l0.007-0.028c0.099-0.329 0.155-0.708 0.155-1.099s-0.057-0.77-0.162-1.127l0.007 0.028c-0.495-1.678-2.020-2.882-3.827-2.886h-0z"></path>
</svg>
