<!-- Generated by IcoMoon.io -->
<svg version="1.1" xmlns="http://www.w3.org/2000/svg" width="37" height="32" viewBox="0 0 37 32">
<title>vs</title>
<path d="M25.123 27.102c0.021-0.355 0.033-0.77 0.033-1.188s-0.012-0.833-0.035-1.245l0.003 0.057c-0.029-0.139-0.046-0.299-0.046-0.462 0-0.787 0.385-1.485 0.978-1.914l0.007-0.005c1.060-0.912 2.308-1.64 3.675-2.115l0.080-0.024c0.504-0.202 0.934-0.489 1.292-0.847l-0 0c-0.185 0.019-0.35 0.046-0.512 0.083l0.028-0.005c-1.268 0.397-2.541 0.784-3.799 1.21-0.357 0.158-0.663 0.33-0.949 0.526l0.020-0.013c-0.097-0.324-0.189-0.653-0.295-0.968-0.056-0.124-0.114-0.229-0.18-0.328l0.005 0.009c-0.123-0.152-0.197-0.348-0.197-0.562 0-0.285 0.133-0.54 0.34-0.705l0.002-0.001c0.048-0.053 0.102-0.106 0.15-0.165 0.803-0.924 0.808-1.786 0-2.696-0.687-0.774-0.687-0.789 0.295-1.079 0.69-0.215 1.484-0.34 2.306-0.34 0.729 0 1.435 0.097 2.106 0.28l-0.056-0.013c0.765 0.203 0.857 1.195 1.616 0.968 1.907-0.484 0.165-0.034 2.129-0.223 0.44-0.044 0.692 0.044 0.818 0.484 0.242 0.847 1.191 0.673 1.389 1.534s0.324 1.844 0.484 2.763c0.247 1.5-0.91 3.286-0.126 4.593 0.31 0.518 0.315 0.523-0.227 0.663-1.907 0.484-0.126 0.198-2.052 0.586-1.452 0.295-0.939 0.663-1.878 1.757s-1.868 2.183-2.793 3.257c-0.527 0.631-1.313 1.030-2.193 1.030-0.128 0-0.253-0.008-0.377-0.025l0.014 0.002c-1.702-0.139-3.276-0.456-4.776-0.937l0.15 0.041c-1.195-0.353-1.834-1.452-1.733-2.904 0.116-1.694 0.256-3.388 0.411-5.072 0.082-0.929 0.484-1.2 1.384-0.968 0.934 0.138 1.661 0.876 1.78 1.804l0.001 0.010c0.169 1.065 0.402 2.12 0.605 3.18z"></path>
<path d="M20.201 26.42c0.003 0.041 0.005 0.089 0.005 0.138s-0.002 0.097-0.006 0.144l0-0.006c-0.111 0.852-0.203 1.708-0.348 2.55-0.092 0.513-0.339 0.721-0.832 0.61-1.379-0.324-2.749-0.707-4.123-1.079-0.268-0.060-0.465-0.295-0.465-0.577 0-0.060 0.009-0.118 0.026-0.173l-0.001 0.004c0.125-0.716 0.315-1.353 0.569-1.956l-0.022 0.059c0.266-0.557 0.825-0.935 1.472-0.935 0.109 0 0.216 0.011 0.32 0.031l-0.010-0.002c0.876 0.106 1.747 0.266 2.613 0.416 0.406 0.064 0.724 0.373 0.802 0.768l0.001 0.006z"></path>
<path d="M24.542 20.104c0.218 0.924 0.058 1.191-0.828 1.191-0.158 0.004-0.343 0.006-0.529 0.006-1.888 0-3.726-0.217-5.49-0.628l0.163 0.032c-0.402-0.087-0.571-0.315-0.484-0.668 0.075-0.578 0.221-1.102 0.431-1.592l-0.015 0.039c0.245-0.6 0.824-1.016 1.501-1.016 0.238 0 0.464 0.052 0.668 0.144l-0.010-0.004c1.147 0.368 2.284 0.774 3.422 1.176 0.609 0.181 1.064 0.687 1.17 1.311l0.001 0.010z"></path>
<path d="M25.191 16.6c0 0.073 0.024 0.145 0.034 0.218 0.145 1.35-0.315 1.747-1.612 1.36-1.133-0.339-2.26-0.673-3.388-1.050-0.871-0.29-0.968-0.586-0.692-1.452 0.45-1.273 1.224-1.708 2.512-1.321 0.793 0.245 1.469 0.524 2.114 0.856l-0.072-0.034c0.561 0.28 0.969 0.793 1.101 1.409l0.002 0.013z"></path>
<path d="M20.419 22.703c-0.029 0.714-0.093 1.382-0.192 2.038l0.013-0.102c-0.117 0.219-0.337 0.37-0.593 0.387l-0.002 0c-1.021-0.126-2.033-0.315-3.044-0.484-0.285-0.052-0.498-0.299-0.498-0.595 0-0.046 0.005-0.091 0.015-0.135l-0.001 0.004c0.1-0.709 0.269-1.347 0.504-1.952l-0.020 0.059c0.162-0.297 0.445-0.511 0.782-0.575l0.007-0.001c0.168-0.028 0.361-0.044 0.559-0.044 0.689 0 1.332 0.197 1.876 0.537l-0.015-0.009c0.244 0.248 0.448 0.535 0.601 0.852l0.008 0.019z"></path>
<path d="M12.031 5.004c-0.058 0.594-0.091 1.284-0.091 1.982 0 0.139 0.001 0.277 0.004 0.415l-0-0.021c0.016 0.103 0.025 0.223 0.025 0.344 0 0.828-0.424 1.558-1.066 1.983l-0.009 0.005c-1.098 0.857-2.389 1.529-3.791 1.94l-0.081 0.020c-0.525 0.179-0.978 0.444-1.365 0.783l0.005-0.004c0.174-0.004 0.34-0.023 0.502-0.056l-0.018 0.003c1.287-0.334 2.575-0.658 3.872-1.026 0.373-0.145 0.691-0.307 0.991-0.498l-0.023 0.014c0.082 0.329 0.16 0.663 0.252 0.968 0.049 0.13 0.101 0.24 0.161 0.345l-0.006-0.011c0.107 0.146 0.171 0.328 0.171 0.526 0 0.299-0.146 0.563-0.371 0.726l-0.003 0.002c-0.048 0.058-0.106 0.106-0.155 0.16-0.871 0.915-0.871 1.781-0.14 2.73 0.649 0.803 0.653 0.818-0.348 1.060-0.585 0.153-1.256 0.241-1.947 0.241-0.86 0-1.688-0.136-2.465-0.388l0.056 0.016c-0.755-0.237-0.799-1.239-1.568-1.070-1.936 0.421-0.165 0-2.139 0.121-0.44 0-0.687-0.077-0.794-0.528-0.198-0.861-1.157-0.731-1.316-1.597s-0.247-1.858-0.373-2.788c-0.179-1.505 1.065-3.238 0.339-4.578-0.266-0.532-0.266-0.532 0.276-0.653 1.936-0.397 0.135-0.194 2.081-0.484 1.481-0.223 0.968-0.615 1.936-1.665s1.999-2.086 2.976-3.107c0.519-0.572 1.266-0.93 2.096-0.93 0.176 0 0.349 0.016 0.516 0.047l-0.017-0.003c1.71 0.219 3.258 0.61 4.727 1.161l-0.144-0.047c1.181 0.411 1.766 1.539 1.597 3.001-0.198 1.665-0.411 3.368-0.653 5.053-0.131 0.924-0.547 1.176-1.428 0.924-0.92-0.181-1.617-0.945-1.693-1.885l-0.001-0.008c-0.121-1.074-0.305-2.139-0.455-3.204z"></path>
<path d="M16.939 5.924c-0.003-0.041-0.005-0.089-0.005-0.138s0.002-0.097 0.006-0.144l-0 0.006c0.155-0.847 0.286-1.694 0.484-2.531 0.111-0.508 0.373-0.707 0.857-0.571 1.365 0.392 2.715 0.837 4.065 1.273 0.253 0.071 0.435 0.299 0.435 0.57 0 0.070-0.012 0.137-0.034 0.199l0.001-0.004c-0.159 0.71-0.373 1.332-0.648 1.92l0.024-0.057c-0.279 0.518-0.817 0.864-1.436 0.864-0.143 0-0.282-0.018-0.414-0.053l0.011 0.003c-0.866-0.145-1.728-0.348-2.589-0.542-0.391-0.085-0.69-0.397-0.754-0.788l-0.001-0.006z"></path>
<path d="M12.278 12.031c-0.174-0.939 0-1.186 0.861-1.171 2.089 0.057 4.081 0.37 5.978 0.908l-0.171-0.041c0.392 0.106 0.557 0.339 0.484 0.692-0.099 0.575-0.268 1.090-0.499 1.569l0.015-0.035c-0.26 0.562-0.819 0.944-1.467 0.944-0.266 0-0.518-0.065-0.739-0.179l0.009 0.004c-1.133-0.421-2.246-0.881-3.364-1.336-0.591-0.207-1.023-0.721-1.107-1.347l-0.001-0.009z"></path>
<path d="M11.465 15.487c0-0.073 0-0.145-0.024-0.218-0.082-1.355 0.402-1.733 1.675-1.283 1.113 0.392 2.231 0.779 3.33 1.205 0.857 0.329 0.968 0.634 0.624 1.476-0.513 1.253-1.307 1.65-2.57 1.2-0.781-0.285-1.441-0.593-2.071-0.95l0.067 0.035c-0.539-0.306-0.922-0.833-1.029-1.454l-0.002-0.012z"></path>
<path d="M16.523 9.626c0.066-0.745 0.162-1.407 0.291-2.056l-0.020 0.121c0.128-0.219 0.361-0.363 0.629-0.363 0 0 0 0 0 0h-0c1.016 0.174 2.018 0.411 3.020 0.644 0.262 0.070 0.451 0.306 0.451 0.585 0 0.055-0.007 0.109-0.021 0.16l0.001-0.004c-0.134 0.706-0.333 1.332-0.598 1.922l0.022-0.054c-0.172 0.292-0.464 0.498-0.807 0.551l-0.006 0.001c-0.105 0.011-0.227 0.018-0.351 0.018-0.757 0-1.457-0.239-2.032-0.644l0.011 0.007c-0.24-0.251-0.439-0.544-0.583-0.866l-0.008-0.019z"></path>
</svg>
