<svg id="Layer_2" data-name="Layer 2" xmlns="http://www.w3.org/2000/svg" viewBox="0 0 118 117.8"><defs><style>.cls-1{fill:#be1e2d;}.cls-2,.cls-3{fill:#fff;}.cls-3{stroke:#000;stroke-miterlimit:10;stroke-width:3px;}</style></defs><title>logoPokeball</title><path class="cls-1" d="M294.1,275.1l.1-1.6a57.36,57.36,0,0,1,114.6,0l.1,1.6Z" transform="translate(-292.5 -217.3)"/><path d="M351.5,220.3a55.89,55.89,0,0,1,55.8,53.4H295.7a55.82,55.82,0,0,1,55.8-53.4m0-3a59,59,0,0,0-58.9,56.3l-.1,3.1H410.4l-.1-3.1a58.84,58.84,0,0,0-18.1-39.9,58.25,58.25,0,0,0-40.7-16.4Z" transform="translate(-292.5 -217.3)"/><path class="cls-2" d="M351.5,333.5a57.2,57.2,0,0,1-57.3-54.8l-.1-1.6H408.9l-.1,1.6A57.13,57.13,0,0,1,351.5,333.5Z" transform="translate(-292.5 -217.3)"/><path d="M407.3,278.7a55.85,55.85,0,0,1-111.6,0H407.3m3.2-3H292.6l.1,3.1a59,59,0,0,0,117.8,0v-3.1Z" transform="translate(-292.5 -217.3)"/><circle class="cls-3" cx="59" cy="58.8" r="16"/></svg>